<svg aria-hidden="true" style="position: absolute; width: 0; height: 0; overflow: hidden;" version="1.1" xmlns="http://www.w3.org/2000/svg" xmlns:xlink="http://www.w3.org/1999/xlink">
<defs>
<symbol id="icon-chevron-down" viewBox="0 0 24 24">
<path d="M5.293 9.707l6 6c0.391 0.391 1.024 0.391 1.414 0l6-6c0.391-0.391 0.391-1.024 0-1.414s-1.024-0.391-1.414 0l-5.293 5.293-5.293-5.293c-0.391-0.391-1.024-0.391-1.414 0s-0.391 1.024 0 1.414z"></path>
</symbol>
<symbol id="icon-chevron-up" viewBox="0 0 24 24">
<path d="M18.707 14.293l-6-6c-0.391-0.391-1.024-0.391-1.414 0l-6 6c-0.391 0.391-0.391 1.024 0 1.414s1.024 0.391 1.414 0l5.293-5.293 5.293 5.293c0.391 0.391 1.024 0.391 1.414 0s0.391-1.024 0-1.414z"></path>
</symbol>
<symbol id="icon-minus" viewBox="0 0 24 24">
<path d="M5 13h14c0.552 0 1-0.448 1-1s-0.448-1-1-1h-14c-0.552 0-1 0.448-1 1s0.448 1 1 1z"></path>
</symbol>
</defs>
</svg>
